<?xml version="1.0" encoding="UTF-8"?>
<svg id="Capa_1" xmlns="http://www.w3.org/2000/svg" version="1.1" viewBox="0 0 164 340">
  <!-- Generator: Adobe Illustrator 29.5.0, SVG Export Plug-In . SVG Version: 2.1.0 Build 137)  -->
  <defs>
    <style>
      .st0 {
        fill: #ffb68e;
      }
    </style>
  </defs>
  <path class="st0" d="M81.23,337.32c-44.12,0-80.02-35.9-80.02-80.02V81.48C1.21,37.36,37.1,1.46,81.23,1.46s80.02,35.9,80.02,80.02v175.81c0,44.12-35.9,80.02-80.02,80.02ZM81.23,6.13C39.68,6.13,5.88,39.93,5.88,81.48v175.81c0,41.55,33.8,75.35,75.35,75.35h0c41.55,0,75.35-33.8,75.35-75.35V81.48c0-41.55-33.8-75.35-75.35-75.35Z"/>
  <path class="st0" d="M77.79,273.81c-5.56-.84-9.4-5.12-9.65-10.97h8.47c.25,2.12,1.33,3.94,3.79,3.94h1.97c1.82,0,3.35-1.13,3.35-3.05,0-5.71-17.23-1.13-17.23-14.57,0-5.51,4.03-9.55,9.3-10.29v-4.09s6.35,0,6.35,0v4.13c4.87.84,8.66,4.48,9.06,10.29h-8.37c-.25-2.07-1.38-3.3-3.15-3.3h-1.92c-1.48,0-2.76,1.03-2.76,2.61,0,5.86,17.18.83,17.18,14.71,0,5.81-3.74,9.84-10.04,10.58v4.53s-6.35-.05-6.35-.05v-4.48Z"/>
  <path class="st0" d="M137.46,102.22c-.32-.81-2.1-3.85-2.09-4.17.01-.68.88-2.22,1.06-3.08,1.28-6.18.12-12.23-3.99-17.09-3.18-3.76-7.45-5.73-12.16-6.54,1.93-3.04,3.05-6.65,3.05-10.52,0-10.87-8.81-19.68-19.68-19.68-.6,0-1.19.03-1.77.08.25-1.24.38-2.53.38-3.85,0-10.87-8.81-19.68-19.68-19.68s-19.68,8.81-19.68,19.68c0,1.77.24,3.49.68,5.12-9.94.99-17.7,9.38-17.7,19.58,0,2.51.47,4.9,1.32,7.1-6.44,2.33-11.76,7.91-12.7,14.81-.15,1.11.22,2.71-.2,3.63-.2.44-4.04,3.24-4.95,4.31-5.57,6.5-6.03,16.18-1.22,23.25.65.96,3.04,3.18,3.29,3.73.46,1.01.07,3.56.2,4.9,1.1,10.69,12.62,18.33,22.96,16.01,2.16-.49,4.02-1.8,6.14-2.36,4.42,3.68,9.11,2.51,11.06,8.75,2.83,9.02,1.42,21.76-1.92,30.73l1.93,5.01,3.08-7.33,2.82,5.25,3.35-5.64,3.47,6.17,2.7-6.17,4.07,6.52,1.71-3.05c-4.63-6.55-9.41-19.31-6.42-25.69,1.08-2.31,3.05-3.01,4.7-4.55,1.59-1.48,3.03-3.14,4.62-4.62,12.24,9.06,29.84-.21,29.89-15.28,10.47-3.78,15.81-14.77,11.68-25.35ZM63.81,135.17l3.68-5.41,1.43-3.84c.79,1.54,6.63,3.94,6.95,4.7.18.42.38,1.95.4,2.48.26,7.93-8.28,3.42-12.46,2.08ZM81.51,142.17c-.23.29-.5.74-.93.66-1.28-1.71-.44-3.85-.47-5.57-.04-1.79-.35-3.5-.33-5.28l5.74.64c.6.61-3.19,8.51-4.01,9.55ZM85.2,144.11l3.14-5.31,1.01-2.99,2.87,4.14-7.02,4.15Z"/>
  <path class="st0" d="M80.68,305.69c-11.83,0-22.92-5.23-30.46-14.39-7.92-9.62-11.03-22.2-8.54-34.52,1.45-7.17,5.38-13.33,9.17-19.29,4.15-6.52,8.07-12.68,8.9-19.93.03-.27.01-.68,0-1.1-.03-.73-.08-1.67.15-2.54-1.58-1.13-2.5-2.87-2.49-4.85.02-1.62.67-3.1,1.79-4.17-1.15-1.12-1.82-2.56-1.87-4.11-.05-1.54.54-3.02,1.61-4.17-1.2-1.32-1.78-3.01-1.56-4.73.3-2.33,1.98-4.25,4.44-5.11,1.32-1.57,3.26-3.44,5.31-5.41l2.19-2.11,2.5,5.55,2.9-6.99,3.03,6.77,3.48-6.96,3.31,6.45c.08-.19.17-.39.26-.58.4-.91.8-1.81,1.11-2.49.6-1.3,1.03-2.25,2.29-1.98l1.24.26v1.02c.23.55.98,2.11,1.86,3.91l2.05-4.11,1.53,1.57c1.4,1.43,3.21,3.34,4.4,4.69,2.69.35,4.8,2.16,5.46,4.76.51,2.03.02,4.03-1.26,5.51,1.03,1.25,1.57,2.88,1.44,4.53-.11,1.44-.72,2.74-1.7,3.74,1.05,1.03,1.67,2.42,1.72,3.95.08,2.4-1.26,4.54-3.52,5.66.06.54.04,1.06.03,1.5-.01.44-.03.86.01,1.19,1.01,7.8,4.93,14.04,9.08,20.66,4.32,6.89,8.79,14.01,9.84,23.11h0c1.3,11.26-2.31,22.63-9.89,31.2-7.53,8.51-18.28,13.44-29.49,13.52-.1,0-.2,0-.29,0ZM68.3,184.57c-1.75,1.7-3.34,3.28-4.35,4.53l-.31.39-.48.14c-1.52.43-2.53,1.43-2.69,2.66-.15,1.16.51,2.29,1.75,3.02l2.38,1.4-2.43,1.31c-1.11.6-1.76,1.6-1.72,2.68.04,1.17.85,2.22,2.24,2.86l3.55,1.64-3.71,1.25c-1.46.49-1.99,1.7-2,2.66-.01,1.25.77,2.28,2.09,2.75l3.01,1.08-2.71,1.71c-.13.21-.09,1.17-.07,1.68.02.53.05,1.09,0,1.61-.91,7.96-5.21,14.72-9.37,21.25-3.64,5.72-7.41,11.63-8.75,18.23-2.31,11.4.56,23.03,7.89,31.92,7,8.5,17.32,13.32,28.32,13.25,10.33-.08,20.24-4.62,27.18-12.47,7-7.91,10.33-18.4,9.13-28.78h0c-.97-8.4-5.05-14.91-9.38-21.81-4.14-6.61-8.43-13.44-9.53-21.91-.08-.58-.06-1.17-.04-1.69.01-.44.04-1.17-.07-1.36l-4.95-2.89,5.78.03h.99c1.13-.59,1.77-1.6,1.73-2.75-.04-1.17-.77-2.12-1.95-2.55l-3.79-1.37,3.72-1.54c1.62-.67,1.95-1.91,2.01-2.59.09-1.2-.5-2.37-1.52-2.99l-2.22-1.35,2.24-1.32c1.45-.85,1.68-2.3,1.41-3.37-.29-1.15-1.3-2.4-3.25-2.47l-.69-.02-.45-.52c-.66-.78-1.82-2.04-3.16-3.44l-2.88,5.77-1.39-2.79c-.88-1.76-1.54-3.1-2.04-4.13-.54,1.22-1.18,2.68-1.77,4.06l-1.31,3.03-3.51-6.84-3.67,7.34-2.76-6.17-2.89,6.97-3.63-8.07ZM89.43,180.54h0s0,0,0,0Z"/>
  <rect class="st0" x="61.4" y="195.64" width="39.5" height="2.34"/>
  <rect class="st0" x="61.4" y="203.39" width="39.5" height="2.34"/>
  <rect class="st0" x="61.4" y="211.39" width="39.5" height="2.34"/>
</svg>