<?xml version="1.0" encoding="UTF-8"?>
<svg id="Capa_1" xmlns="http://www.w3.org/2000/svg" version="1.1" viewBox="0 0 187.73 186.48">
  <!-- Generator: Adobe Illustrator 29.5.0, SVG Export Plug-In . SVG Version: 2.1.0 Build 137)  -->
  <defs>
    <style>
      .st0 {
        fill: #163609;
      }

      .st1 {
        fill: #cefaab;
      }
    </style>
  </defs>
  <circle class="st1" cx="93.17" cy="92.89" r="92.35"/>
  <g>
    <path class="st0" d="M19.9,76.42l4.06-11.95,3.55,1.21-2.64,7.76,3.02,1.03,2.5-7.35,3.55,1.21-2.5,7.35,3.36,1.14,2.65-7.79,3.55,1.21-4.07,11.97-17.03-5.79Z"/>
    <path class="st0" d="M40.57,59.62l2.81-3.41c.93.6,2.03.77,2.85-.22l.65-.79c.6-.73.65-1.73-.12-2.36-2.3-1.89-6.17,6.57-11.59,2.11-2.48-2.04-2.54-5.49-.5-7.97l.75-.91c1.96-2.38,5.14-3.09,7.97-1.07l-2.78,3.37c-.92-.59-1.79-.54-2.38.18l-.64.77c-.49.6-.5,1.45.14,1.98,2.36,1.94,6.04-6.65,11.63-2.04,2.62,2.16,2.77,5.45.24,8.52l-.67.81c-2.21,2.68-5.64,3.09-8.37,1.03Z"/>
    <path class="st0" d="M51.18,31.67l6.73-3.81c3.29-1.86,6.38-.77,8.03,2.14,1.63,2.89.97,6.1-2.32,7.96l-2.89,1.63,3.15,5.57-3.85,2.18-8.85-15.66ZM61.33,34.94c1.16-.66,1.32-1.75.75-2.75-.57-1.01-1.59-1.46-2.76-.8l-2.44,1.38,2.01,3.56,2.44-1.38Z"/>
    <path class="st0" d="M76.96,20.4l12.48-1.88.56,3.71-8.11,1.22.47,3.15,7.68-1.16.56,3.71-7.68,1.16.53,3.51,8.13-1.22.56,3.71-12.5,1.88-2.68-17.79Z"/>
    <path class="st0" d="M102.06,27.56c1.38-5.85,5.96-8.05,9.81-7.15l1.2.28c4.08.96,5.98,4.65,5.44,8.43l-4.38-1.03c.25-1.74-.44-3.4-1.92-3.75l-1.18-.28c-1.58-.37-3.84,1.05-4.65,4.5-.81,3.43.55,5.73,2.18,6.11l1.18.28c1.48.35,2.88-.78,3.51-2.47l4.13.97c-1.2,3.97-5.2,5.93-8.5,5.16l-1.18-.28c-4.03-.95-7.03-4.93-5.65-10.78Z"/>
    <path class="st0" d="M132.71,28.85l3.76,2.32-9.45,15.31-3.76-2.32,9.45-15.31Z"/>
    <path class="st0" d="M151.46,44.04l2.89,3.41-9.7,16.39-2.96-3.49,1.97-3.12-3.62-4.28-3.38,1.45-2.96-3.49,17.75-6.87ZM146.93,50.03l-3.27,1.39,2.11,2.49,1.89-2.98c.5-.76,1.35-1.78,1.35-1.78l-.07-.08s-1.18.63-2.01.96Z"/>
    <path class="st0" d="M164.98,64.95l1.46,4.17-13.44,4.69,2.37,6.79-3.54,1.24-3.83-10.97,16.99-5.93Z"/>
  </g>
  <path class="st0" d="M121.02,76.95h-.39v-5.08c0-5.92-4.74-10.73-10.56-10.73h-.44v-2.36c0-5.03-3.94-9.13-8.78-9.13h-4.93c-.74,0-1.35.6-1.35,1.35,0,1.2.12,2.48,0,3.68-.16,1.54.01,1.32-1.58,1.39-2.45.11-4.93.01-7.38.02-.37,0-.78.01-1.06.25-.36.3-.39.83-.39,1.29-.01,3.23-.02,6.45-.03,9.68-2.57-.17-5.13-.13-7.7-.11-.55,0-1.14.02-1.61.32-.84.54-.93,1.71-.92,2.71.06,12.04.11,24.08.17,36.12-2.77-4.17-5.28-8.92-10.98-8.92-2.53,0-4.87,1.17-6.84,2.68-.42.32-.83.68-1.04,1.16-.35.82-.04,1.75.28,2.58,3.03,7.94,6.11,15.87,9.17,23.81,1.35,3.51,2.7,6.54,4.63,9.71,2.13,3.51,4.49,6.88,6.85,10.24,1.44,2.06,2.88,4.12,4.32,6.18.67.96,1.37,1.94,2.36,2.56,1.77,1.12,5.45.33,7.57.33h18.7s.07,0,.1,0c.07,0,.13,0,.2-.01,1.36-.2,6.15-1.17,10.98-5.2,4.99-4.17,10.95-12.56,10.95-28.83v-34.66c0-6-4.61-10.95-10.28-11.04ZM127.32,122.15c-1.04,8.3-.55,18.59-6.42,24.93-2.88,3.11-7.85,4.61-12.02,5.47l-.14.03h-24.16l-14.7-21.63c-.75-1.1-1.36-2.29-1.83-3.54l-8.34-24.48.48-.36c.87-.6,1.88-.92,2.92-.92,1.75,0,3.39.89,4.38,2.38l8.26,12.38c.33.49.94.71,1.51.54,2.02-.61.96-7.87.96-9.61,0-11.67.01-23.35.02-35.02,0-.22,0-.45.14-.62.14-.17.37-.23.58-.27,1.07-.21,2.18-.27,3.27-.16.53.05,1.09.16,1.46.55.43.45.45,1.15.45,1.77-.03,9.35-.06,18.69-.11,28.04,0,.2,0,.39,0,.59,0,1.46.01,3.02,1.15,4.1.58.56,1.43.78,2.16.46,1.14-.5,1.24-1.84,1.24-2.99,0-7.23,0-14.46.01-21.69,0-7.05-.72-14.55.1-21.55,1.4-.09,2.81-.18,4.21-.27.45-.03.96-.04,1.31.25.4.34.43.93.42,1.45-.05,13.48-.11,26.95-.16,40.43,0,1.39.02,2.9,1.14,3.89.62.55,1.55.68,2.23.21.72-.5.76-1.41.76-2.23,0-16.43.02-32.87.03-49.3,0-.57.02-1.19.8-1.45.32-.1.66-.09.98-.02,7.18,1.73,5.15,9.51,5.39,14.75.18,3.9-.02,7.86-.05,11.76-.06,7.58.65,13.21-.29,22.75-.11,1.14.08,2.36.76,3.3.45.63,1.25.95,1.99.73,1.22-.37,1.41-1.89,1.41-3.11,0-12.82-.02-25.63.02-38.45,1.81.41,3.71.95,4.94,2.33.99,1.11,1.4,2.63,1.62,4.1.78,5.23-.1,10.67.04,15.94.15,5.72.73,7.97.73,13.69,0,.37-.73,5.72-.56,6.04.39.75,1.42.81,2.26.78.59-.02,1.26-.08,1.63-.54.3-.37.32-.89.32-1.37,0-7.85,0-17.16,0-25,0-.38,3.06.67,3.31.8.91.51,1.69,1.26,2.23,2.16,1.16,1.92,1.19,4.28,1.18,6.52,0,10.48,1.63,18.19-.03,31.45Z"/>
</svg>