<?xml version="1.0" encoding="UTF-8"?>
<svg id="Capa_1" xmlns="http://www.w3.org/2000/svg" version="1.1" viewBox="0 0 800 800">
  <!-- Generator: Adobe Illustrator 29.5.0, SVG Export Plug-In . SVG Version: 2.1.0 Build 137)  -->
  <defs>
    <style>
      .st0 {
        fill: #ffb68e;
      }
    </style>
  </defs>
  <path class="st0" d="M645.7,418.09v.06c-1.04-2.62-6.8-12.47-6.77-13.5.03-2.2,2.85-7.19,3.43-9.97,4.14-20.01.39-39.6-12.92-55.34-10.3-12.18-24.12-18.55-39.38-21.18,6.25-9.84,9.88-21.53,9.88-34.06,0-35.2-28.53-63.73-63.73-63.73-1.94,0-3.85.1-5.73.26.81-4.02,1.23-8.19,1.23-12.47,0-35.2-28.53-63.73-63.73-63.73s-63.73,28.53-63.73,63.73c0,4.18.42,8.27,1.2,12.23-.15,0-.3-.02-.45-.02-1.94,0-3.85.1-5.73.26.81-4.02,1.23-8.19,1.23-12.47,0-35.2-28.53-63.73-63.73-63.73s-63.73,28.53-63.73,63.73c0,5.73.78,11.3,2.2,16.58-32.19,3.21-57.31,30.37-57.31,63.4,0,8.13,1.52,15.87,4.27,22.99-20.85,7.54-38.08,25.61-41.12,47.96-.49,3.59.71,8.78-.65,11.75-.65,1.42-13.08,10.49-16.03,13.96-18.04,21.05-19.53,52.39-3.95,75.29,2.1,3.11,9.84,10.3,10.65,12.08,1.49,3.27.23,11.53.65,15.87,3.56,34.62,40.86,59.35,74.35,51.84,6.99-1.59,13.02-5.83,19.88-7.64,14.31,11.92,29.5,8.13,35.81,28.33,9.16,29.21,4.6,70.46-6.22,99.51l6.25,16.22,9.97-23.74,9.13,17,10.85-18.26,11.24,19.98,8.74-19.98,13.18,21.11,5.54-9.88c-14.99-21.21-30.47-62.53-20.79-83.19,3.5-7.48,9.88-9.75,15.22-14.73,5.15-4.79,9.81-10.17,14.96-14.96,16.26,12.03,35.43,14.07,52.41,8.93.24.65.5,1.27.73,1.98,9.16,29.21,4.6,70.46-6.22,99.51l6.25,16.22,9.97-23.74,9.13,17,10.85-18.26,11.24,19.98,8.74-19.98,13.18,21.11,5.54-9.88c-14.99-21.21-30.47-62.53-20.79-83.19,3.5-7.48,9.88-9.75,15.22-14.73,5.15-4.79,9.81-10.17,14.96-14.96,39.63,29.34,96.62-.68,96.79-49.48,33.9-12.24,51.19-47.83,37.82-82.09ZM276.01,524.88v-.03l11.92-17.52,4.63-12.43c1.57,3.07,9.32,7.18,15.3,10.47,2.23,4.72,5.1,9.11,8.5,13.08.6,25.24-26.87,10.75-40.35,6.43ZM330.28,549.69c-4.14-5.54-1.42-12.47-1.52-18.04-.02-.71-.07-1.4-.11-2.11,3.44,2.39,7.12,4.45,10.95,6.16-2.62,5.55-5.24,10.49-6.31,11.85-.74.94-1.62,2.4-3.01,2.14ZM345.27,553.75l8.1-13.69c4.33.85,8.74,1.24,13.16,1.13l-21.25,12.57ZM464.5,547.55c-.74.94-1.62,2.4-3.01,2.14-1.7-2.27-2.22-4.78-2.28-7.33,7.03-7.12,12.38-15.98,15.21-26.07l3.06.34c1.94,1.98-10.33,27.56-12.98,30.92ZM476.48,553.75l10.14-17.14,3.27-9.68,9.29,13.41-22.7,13.42Z"/>
</svg>