<?xml version="1.0" encoding="UTF-8"?>
<svg id="Capa_1" xmlns="http://www.w3.org/2000/svg" version="1.1" viewBox="0 0 800 800">
  <!-- Generator: Adobe Illustrator 29.5.0, SVG Export Plug-In . SVG Version: 2.1.0 Build 137)  -->
  <defs>
    <style>
      .st0 {
        fill: #ffb68e;
      }
    </style>
  </defs>
  <path class="st0" d="M453.68,597.32h-105.83c-5.97,0-10.81-4.84-10.81-10.81h0c0-5.97,4.84-10.81,10.81-10.81h105.83c5.97,0,10.81,4.84,10.81,10.81h0c0,5.97-4.84,10.81-10.81,10.81Z"/>
  <path class="st0" d="M453.68,631.28h-105.83c-5.97,0-10.81-4.84-10.81-10.81h0c0-5.97,4.84-10.81,10.81-10.81h105.83c5.97,0,10.81,4.84,10.81,10.81h0c0,5.97-4.84,10.81-10.81,10.81Z"/>
  <path class="st0" d="M375.09,644.07c-2.62,0-4.61,2.38-4.13,4.96,2.61,13.93,14.81,24.48,29.5,24.48,14.69,0,26.89-10.55,29.5-24.48.48-2.57-1.51-4.96-4.13-4.96h-50.74Z"/>
  <path class="st0" d="M442.48,562.07h-84.97c-14.72,0-27.12-11.51-28.22-26.2-3.6-47.91-23.15-78.26-43.85-110.4-22.57-35.05-45.91-71.29-45.91-129.89,0-79.13,56.6-145.73,134.59-158.34,18.23-2.95,37.45-2.72,55.58.66,75.77,14.17,130.76,80.48,130.76,157.68,0,58.6-23.34,94.84-45.92,129.89-20.7,32.14-40.25,62.49-43.85,110.4-1.11,14.69-13.5,26.2-28.22,26.2Z"/>
</svg>