<?xml version="1.0" encoding="UTF-8"?>
<svg id="Capa_1" xmlns="http://www.w3.org/2000/svg" version="1.1" viewBox="0 0 800 800">
  <!-- Generator: Adobe Illustrator 29.5.0, SVG Export Plug-In . SVG Version: 2.1.0 Build 137)  -->
  <defs>
    <style>
      .st0 {
        fill: #ffb68e;
      }
    </style>
  </defs>
  <path class="st0" d="M576.61,239.26c-5.21-2.4-8.56-8.1-7.5-14.25l10.24-59.48c1.86-10.8-9.48-19.04-19.18-13.93l-53.41,28.12c-7.56,3.98-16.86-.16-18.96-8.44l-14.84-58.51c-2.69-10.62-16.4-13.53-23.18-4.93l-37.36,47.41c-5.29,6.71-15.47,6.71-20.76,0l-37.36-47.41c-6.78-8.61-20.49-5.69-23.18,4.93l-14.84,58.51c-2.1,8.28-11.4,12.42-18.96,8.44l-53.41-28.12c-9.7-5.1-21.03,3.13-19.18,13.93l10.24,59.48c1.45,8.42-5.36,15.99-13.89,15.42l-60.23-3.96c-10.93-.72-17.94,11.42-11.85,20.53l33.55,50.18c4.75,7.11,1.61,16.78-6.41,19.74l-56.63,20.88c-10.28,3.79-11.75,17.73-2.48,23.57l51.05,32.2c7.23,4.56,8.29,14.68,2.17,20.64l-43.25,42.11c-7.85,7.64-3.52,20.97,7.32,22.54l59.74,8.65c8.46,1.22,13.55,10.04,10.38,17.98l-22.38,56.06c-4.06,10.18,5.31,20.59,15.86,17.61l58.09-16.4c8.23-2.32,16.46,3.66,16.79,12.2l2.36,60.31c.43,10.95,13.23,16.65,21.65,9.64l46.4-38.61c6.57-5.47,16.52-3.35,20.3,4.32l26.68,54.14c4.84,9.83,18.86,9.83,23.7,0l26.68-54.14c3.78-7.67,13.73-9.78,20.3-4.32l46.4,38.61c8.42,7.01,21.23,1.31,21.65-9.64l2.36-60.31c.33-8.54,8.57-14.52,16.79-12.2l58.09,16.4c10.55,2.98,19.92-7.44,15.86-17.61l-22.38-56.06c-3.17-7.94,1.92-16.75,10.38-17.98l59.74-8.65c10.84-1.57,15.18-14.9,7.32-22.54l-43.25-42.11c-6.12-5.96-5.06-16.08,2.17-20.64l51.05-32.2c9.27-5.84,7.8-19.78-2.48-23.57l-46.84-17.27-.82.04-208.13,134.13-111.72,15.03-.5-.77-21.83,14.16-5.97-9.2,21.86-14.18-.48-.74,59.86-95.5,206.45-133.04,1.19-.77-1.05-.43Z"/>
</svg>