<?xml version="1.0" encoding="UTF-8"?>
<svg id="Capa_1" xmlns="http://www.w3.org/2000/svg" version="1.1" viewBox="0 0 800 800">
  <!-- Generator: Adobe Illustrator 29.5.0, SVG Export Plug-In . SVG Version: 2.1.0 Build 137)  -->
  <defs>
    <style>
      .st0 {
        fill: #ffb68e;
      }
    </style>
  </defs>
  <path class="st0" d="M587.91,327.5h-120.26c-.78-46.04-38.32-83.13-84.55-83.13h-167.58c-46.72,0-84.59,37.87-84.59,84.59h0c0,46.72,37.87,84.59,84.59,84.59h17.91c-3.09,31.02-25.82,56.36-25.82,56.36,65.87-13.71,80.63-45.64,83.78-56.36h44.4c.78,46.04,38.32,83.13,84.55,83.13h91.72c3.15,10.72,17.91,42.65,83.78,56.36,0,0-22.73-25.34-25.82-56.36h17.91c46.72,0,84.59-37.87,84.59-84.59h0c0-46.72-37.87-84.59-84.59-84.59Z"/>
</svg>