<?xml version="1.0" encoding="UTF-8"?>
<svg id="Capa_1" xmlns="http://www.w3.org/2000/svg" version="1.1" viewBox="0 0 800 800">
  <!-- Generator: Adobe Illustrator 29.5.0, SVG Export Plug-In . SVG Version: 2.1.0 Build 137)  -->
  <defs>
    <style>
      .st0 {
        fill: #ffb68e;
      }
    </style>
  </defs>
  <circle class="st0" cx="239.43" cy="165.75" r="55.37"/>
  <circle class="st0" cx="395.55" cy="165.75" r="55.37" transform="translate(-27.5 95.31) rotate(-13.28)"/>
  <path class="st0" d="M655.09,408.53c-3.17-36.65-6.76-73.26-10.66-109.84-.86-8.01-2.91-16.11-5.75-23.66-6.41-17.09-18.67-28.16-36.98-30.74-27.42-3.85-55.01-3.65-82.44-.38-21.64,2.58-35.15,15.66-40.92,36.15-.54-1.7-1.11-3.38-1.73-5.04-6.41-17.09-18.67-28.16-36.98-30.74-27.41-3.85-55.01-3.65-82.44-.38-18.63,2.22-31.22,12.23-38.05,28.04-6.7-15.3-18.47-25.25-35.64-27.66-27.41-3.85-55.01-3.65-82.44-.38-22.1,2.64-35.74,16.2-41.3,37.46-2.8,10.72-4.74,21.78-5.83,32.81-3.5,35.23-6.54,70.5-9.52,105.77-.97,11.55-.51,23.1,3.77,34.12,3.25,8.37,8.48,15.4,17.43,17.39,10.77,2.4,15,7.5,15.45,21.21,1.23,37.98,2.57,75.95,3.88,113.92.7,20.28,1.36,40.56,2.18,60.83.54,13.37,7.49,20.01,20.67,20.07,6.34.03,12.7-.25,19.03.08,1.38.07,2.7-.31,3.97-.93.12-.06.26-.09.38-.16,4.5-2.42,8.15-8.61,10.02-14.84,2.51,7.39,7.14,16.33,13.42,15.94,6.52-.4,13.08-.07,19.62-.09,13.42-.04,20.68-6.94,21.19-20.3.79-20.87,1.51-41.75,2.21-62.63,1.31-38.77,2.58-77.54,3.9-116.32.27-7.88,3.61-13.49,10.29-15.05,2.68-.63,5.03-1.54,7.24-2.57.86.32,1.74.61,2.68.82,10.77,2.4,15,7.5,15.45,21.21,1.23,37.98,2.57,75.95,3.88,113.92.7,20.28,1.36,40.56,2.18,60.83.54,13.37,7.49,20.01,20.67,20.07,6.34.03,12.7-.25,19.03.08,6.45.34,11.93-7.78,14.37-15.93,2.51,7.39,7.14,16.33,13.42,15.94,6.52-.4,13.08-.07,19.62-.09,13.42-.04,20.68-6.94,21.19-20.3.79-20.87,1.51-41.75,2.21-62.63,1.31-38.77,2.58-77.54,3.9-116.32.27-7.88,3.61-13.49,10.29-15.05,3.86-.91,7.19-2.27,10.09-3.99,1.73,1,3.64,1.77,5.77,2.25,10.77,2.4,15,7.5,15.45,21.21,1.23,37.98,2.57,75.95,3.88,113.92.7,20.28,1.36,40.56,2.18,60.83.54,13.37,7.49,20.01,20.67,20.07,6.34.03,12.7-.25,19.03.08,13.08.07,13.02-24.81,14.37-32.68,1.3,7.1,1.27,32.7,13.42,32.69,6.52-.4,13.08-.07,19.62-.09,13.42-.04,20.68-6.94,21.19-20.3.79-20.87,1.51-41.75,2.21-62.63,1.31-38.77,2.58-77.54,3.9-116.32.27-7.88,3.61-13.49,10.29-15.05,16.17-3.79,23.5-15.21,25.18-30.26,1.27-11.34.88-23.02-.11-34.44Z"/>
  <circle class="st0" cx="557.62" cy="165.75" r="55.37"/>
</svg>