<?xml version="1.0" encoding="UTF-8"?>
<svg id="Capa_1" xmlns="http://www.w3.org/2000/svg" version="1.1" viewBox="0 0 1003.34 134.78">
  <!-- Generator: Adobe Illustrator 29.5.0, SVG Export Plug-In . SVG Version: 2.1.0 Build 137)  -->
  <defs>
    <style>
      .st0 {
        fill: red;
      }
    </style>
  </defs>
  <path class="st0" d="M996.99,77.12c-10.65-14-23.34-26.33-37.6-36.63s-30.11-18.55-46.77-24.33c-17.12-5.94-35.15-9.17-53.27-9.56s-37.63,2.17-55.62,7.54c-18.01,5.37-35.15,13.55-50.59,24.27-15.55,10.8-29.52,23.73-45.36,34.12-7.93,5.2-16.32,9.69-25.28,12.82s-18.71,5.11-28.36,5.91c-19.67,1.64-39.48-1.03-58.58-5.7s-39.21-12.05-58.52-18.9c-19.51-6.91-39.2-13.6-59.58-17.44-10.13-1.91-20.7-3.29-30.66.19-9.11,3.17-16.82,9.23-24.25,15.21-15.42,12.43-29.81,26.15-45.88,37.77s-32.43,20.08-51.34,23.27c-8.96,1.51-18.26,1.65-27.19-.17s-16.59-5.35-23.72-10.45c-13.59-9.72-23.45-23.61-34.46-35.96-5.59-6.27-11.54-12.27-18.32-17.26s-14.03-8.64-21.79-11.35c-15.56-5.43-32.65-6.42-48.77-3.06-8.04,1.67-15.86,4.48-23.1,8.38-8.01,4.31-15.06,10.08-21.57,16.39-13.61,13.2-25.29,28.85-42.11,38.25-7.72,4.31-16.59,7.27-25.52,6.77-7.6-.43-15.17-3.63-20.8-8.74s-8.88-11.46-8.66-18.79c.06-1.93-2.94-1.93-3,0-.47,15.93,14.4,28.05,29.16,30.19,18.24,2.64,35.4-8.3,48.21-20.12,13.95-12.88,25.32-28.83,41.67-38.94,14.06-8.7,30.72-12.74,47.19-12.26,16.42.48,32.74,5.48,46.22,14.94s23.83,23.67,34.9,36.16c5.47,6.18,11.28,12.09,17.9,17.05s14.78,9.08,23.21,11.15c18.02,4.44,37.23,1.11,54.13-5.96,18-7.52,33.59-19.52,48.41-31.99,7.56-6.36,14.96-12.89,22.56-19.2s14.97-12.61,23.74-16.73c4.61-2.17,9.54-3.43,14.63-3.65s10.49.44,15.65,1.34c10.27,1.79,20.4,4.35,30.39,7.32,19.98,5.93,39.42,13.5,59.15,20.18s38.34,11.9,58.3,14.32,39.18,1.78,57.83-3.98,33.92-16.65,48.86-28.38c7.5-5.89,14.88-11.93,22.6-17.52s15.61-10.5,23.99-14.77c16.76-8.53,34.91-14.3,53.48-17.17,18.6-2.88,37.75-2.8,56.3.43,17.38,3.03,34.26,8.76,49.95,16.84,15.63,8.05,30.07,18.38,42.68,30.64,6.11,5.94,11.8,12.33,16.96,19.11,1.15,1.52,3.76.02,2.59-1.51h0Z"/>
</svg>